<svg xmlns="http://www.w3.org/2000/svg" xmlns:xlink="http://www.w3.org/1999/xlink" width="500" zoomAndPan="magnify" viewBox="0 0 375 374.999991" height="500" preserveAspectRatio="xMidYMid meet" version="1.0"><defs><g/><clipPath id="8ddc493619"><path d="M 118.425781 131.375 L 256.425781 131.375 L 256.425781 267.125 L 118.425781 267.125 Z M 118.425781 131.375 " clip-rule="nonzero"/></clipPath><clipPath id="c74166c92a"><path d="M 199.542969 146.972656 C 201.265625 146.972656 202.65625 148.363281 202.65625 150.085938 C 202.65625 151.808594 201.265625 153.203125 199.542969 153.203125 C 197.820312 153.203125 196.429688 151.808594 196.429688 150.085938 C 196.429688 148.363281 197.820312 146.972656 199.542969 146.972656 Z M 250.4375 197.625 C 250.4375 199.183594 249.292969 200.464844 247.796875 200.695312 C 246.988281 212.222656 243.082031 222.90625 236.886719 231.914062 C 238.066406 233.050781 238.808594 234.632812 238.808594 236.402344 C 238.808594 239.84375 236.019531 242.632812 232.582031 242.632812 C 231.199219 242.632812 229.925781 242.164062 228.894531 241.402344 C 219.832031 250.238281 208.140625 256.375 195.113281 258.496094 C 195.113281 258.554688 195.132812 258.617188 195.132812 258.675781 C 195.132812 263.335938 191.359375 267.105469 186.707031 267.105469 C 182.15625 267.105469 178.476562 263.488281 178.308594 258.980469 C 159.5 257 143.132812 246.710938 132.945312 231.851562 C 132.324219 232.1875 131.628906 232.394531 130.871094 232.394531 C 128.441406 232.394531 126.46875 230.417969 126.46875 227.984375 C 126.46875 226.425781 127.28125 225.0625 128.5 224.28125 C 124.289062 215.828125 121.910156 206.308594 121.910156 196.242188 C 121.910156 192.921875 122.203125 189.640625 122.71875 186.410156 C 120.234375 185.589844 118.425781 183.269531 118.425781 180.511719 C 118.425781 177.070312 121.214844 174.28125 124.652344 174.28125 C 125.0625 174.28125 125.46875 174.328125 125.859375 174.402344 C 131.515625 159.1875 142.925781 146.355469 158.023438 139.203125 C 158.054688 139.191406 158.089844 139.175781 158.128906 139.15625 C 158 138.667969 157.914062 138.15625 157.914062 137.625 C 157.914062 134.183594 160.703125 131.394531 164.140625 131.394531 C 166.644531 131.394531 168.796875 132.886719 169.777344 135.019531 C 169.8125 135.015625 169.84375 135 169.871094 134.992188 L 170.097656 135.914062 C 170.253906 136.457031 170.363281 137.023438 170.363281 137.617188 C 170.363281 138.796875 170.015625 139.890625 169.449219 140.828125 L 178.527344 147.722656 C 179.070312 147.25 179.773438 146.957031 180.546875 146.957031 C 182.269531 146.957031 183.660156 148.351562 183.660156 150.074219 C 183.660156 151.066406 183.191406 151.941406 182.460938 152.511719 L 189.792969 167.519531 C 190.210938 167.386719 190.648438 167.292969 191.113281 167.292969 C 192.429688 167.292969 193.597656 167.882812 194.40625 168.800781 L 205.0625 161.9375 C 204.9375 161.59375 204.855469 161.230469 204.855469 160.84375 C 204.855469 159.121094 206.246094 157.730469 207.96875 157.730469 C 209.691406 157.730469 211.082031 159.121094 211.082031 160.84375 C 211.082031 161.5 210.878906 162.105469 210.53125 162.609375 L 224.0625 176.90625 C 224.78125 176.410156 225.640625 176.109375 226.582031 176.109375 C 229.011719 176.109375 230.984375 178.085938 230.984375 180.519531 C 230.984375 182.726562 229.355469 184.542969 227.238281 184.859375 L 227.238281 210.414062 C 228.050781 210.53125 228.78125 210.878906 229.382812 211.382812 L 244.265625 198.097656 C 244.246094 197.945312 244.21875 197.792969 244.21875 197.632812 C 244.21875 195.910156 245.609375 194.519531 247.332031 194.519531 C 249.046875 194.511719 250.4375 195.902344 250.4375 197.625 Z M 223.308594 183.433594 L 207.941406 193.515625 C 207.949219 193.589844 207.960938 193.664062 207.960938 193.742188 C 207.960938 193.953125 207.941406 194.160156 207.902344 194.359375 L 224.039062 211.15625 C 224.585938 210.765625 225.230469 210.507812 225.925781 210.40625 L 225.925781 184.847656 C 224.886719 184.695312 223.976562 184.183594 223.308594 183.433594 Z M 222.175781 214.742188 C 222.175781 213.726562 222.527344 212.8125 223.105469 212.0625 L 207.320312 195.625 C 207.070312 195.949219 206.765625 196.222656 206.40625 196.425781 L 201.253906 216.71875 C 201.894531 216.988281 202.445312 217.414062 202.890625 217.9375 L 222.191406 214.792969 C 222.183594 214.773438 222.175781 214.761719 222.175781 214.742188 Z M 167.507812 175.121094 C 166.394531 176.8125 164.484375 177.925781 162.3125 177.925781 C 160.957031 177.925781 159.71875 177.484375 158.691406 176.746094 L 147.285156 189.566406 C 148.277344 190.660156 148.902344 192.097656 148.914062 193.6875 L 160.261719 194.78125 C 160.949219 190.824219 164.386719 187.804688 168.539062 187.804688 C 170.507812 187.804688 172.289062 188.507812 173.726562 189.632812 L 180.761719 181.984375 Z M 181.675781 180.996094 L 187.695312 174.445312 C 187.21875 173.851562 186.894531 173.140625 186.773438 172.351562 L 168.472656 172.351562 C 168.414062 172.914062 168.300781 173.460938 168.101562 173.964844 Z M 186.714844 204.671875 C 186.714844 204.449219 186.742188 204.222656 186.789062 204.011719 L 176.382812 199.277344 C 175.164062 202.433594 172.125 204.671875 168.539062 204.671875 C 167.621094 204.671875 166.746094 204.488281 165.917969 204.214844 L 160.480469 217.21875 C 161.109375 217.671875 161.613281 218.28125 161.929688 218.996094 L 186.726562 204.8125 C 186.722656 204.757812 186.714844 204.71875 186.714844 204.671875 Z M 146.230469 198.867188 L 156.023438 216.824219 C 156.597656 216.542969 157.234375 216.378906 157.914062 216.378906 C 158.40625 216.378906 158.871094 216.476562 159.3125 216.625 L 164.710938 203.710938 C 161.996094 202.3125 160.113281 199.507812 160.113281 196.242188 C 160.113281 196.1875 160.128906 196.136719 160.128906 196.082031 L 148.796875 194.988281 C 148.472656 196.59375 147.53125 197.964844 146.230469 198.867188 Z M 153.875 222.53125 L 135.230469 227.496094 C 135.25 227.652344 135.277344 227.804688 135.277344 227.972656 L 164.394531 233.335938 C 164.988281 231.605469 166.613281 230.359375 168.539062 230.359375 C 169.253906 230.359375 169.917969 230.542969 170.515625 230.84375 L 187.542969 206.773438 C 187.355469 206.574219 187.203125 206.351562 187.078125 206.105469 L 162.265625 220.304688 C 162.289062 220.460938 162.3125 220.621094 162.3125 220.78125 C 162.3125 223.210938 160.339844 225.1875 157.910156 225.1875 C 156.109375 225.1875 154.550781 224.09375 153.875 222.53125 Z M 189.828125 201.558594 C 190.65625 201.558594 191.402344 201.890625 191.960938 202.417969 L 202.214844 195.378906 C 201.914062 194.902344 201.738281 194.34375 201.738281 193.742188 C 201.738281 193.457031 201.789062 193.191406 201.855469 192.925781 L 181.960938 182.613281 L 174.691406 190.515625 C 176.089844 192.019531 176.964844 194.019531 176.964844 196.242188 C 176.964844 196.851562 176.890625 197.449219 176.773438 198.019531 L 187.335938 202.824219 C 187.898438 202.0625 188.800781 201.558594 189.828125 201.558594 Z M 191.953125 206.933594 L 197.847656 216.710938 C 198.371094 216.492188 198.941406 216.371094 199.539062 216.371094 C 199.691406 216.371094 199.828125 216.398438 199.976562 216.417969 L 204.949219 196.84375 C 204.914062 196.84375 204.890625 196.851562 204.855469 196.851562 C 204.21875 196.851562 203.632812 196.660156 203.132812 196.328125 L 192.703125 203.480469 C 192.855469 203.84375 192.933594 204.242188 192.933594 204.660156 C 192.933594 205.566406 192.554688 206.371094 191.953125 206.933594 Z M 205.699219 190.757812 C 206.492188 190.984375 207.148438 191.507812 207.546875 192.210938 L 222.582031 182.339844 C 222.324219 181.777344 222.171875 181.160156 222.171875 180.503906 C 222.171875 179.484375 222.535156 178.550781 223.117188 177.808594 L 209.574219 163.496094 C 209.195312 163.722656 208.769531 163.867188 208.3125 163.921875 Z M 188.640625 175.347656 L 182.875 181.617188 L 202.457031 191.773438 C 202.9375 191.195312 203.609375 190.792969 204.394531 190.679688 L 207.015625 163.800781 C 206.539062 163.648438 206.101562 163.398438 205.757812 163.046875 L 195.121094 169.898438 C 195.371094 170.449219 195.515625 171.058594 195.515625 171.703125 C 195.515625 174.136719 193.542969 176.109375 191.113281 176.109375 C 190.199219 176.105469 189.351562 175.824219 188.640625 175.347656 Z M 166.796875 167.394531 C 167.726562 168.363281 168.320312 169.632812 168.472656 171.046875 L 186.78125 171.046875 C 186.964844 169.820312 187.640625 168.753906 188.621094 168.078125 L 181.304688 153.097656 C 181.066406 153.15625 180.8125 153.195312 180.554688 153.195312 C 180.023438 153.195312 179.535156 153.050781 179.097656 152.816406 Z M 163.292969 165.570312 C 164.214844 165.71875 165.070312 166.042969 165.804688 166.546875 L 178.089844 151.984375 C 177.6875 151.460938 177.429688 150.804688 177.429688 150.085938 C 177.429688 149.617188 177.542969 149.171875 177.726562 148.773438 L 168.652344 141.886719 C 167.585938 143.019531 166.109375 143.742188 164.445312 143.828125 Z M 129.90625 177.199219 C 130.15625 177.59375 130.347656 178.019531 130.507812 178.46875 L 156.167969 172.464844 C 156.132812 172.214844 156.085938 171.960938 156.085938 171.695312 C 156.085938 168.367188 158.703125 165.671875 161.988281 165.5 L 163.15625 143.75 C 162.179688 143.597656 161.289062 143.226562 160.527344 142.675781 Z M 127.101562 174.785156 C 127.851562 175.109375 128.527344 175.574219 129.089844 176.152344 L 159.550781 141.808594 C 159.160156 141.382812 158.835938 140.898438 158.578125 140.382812 C 143.820312 147.375 132.652344 159.917969 127.101562 174.785156 Z M 130.410156 223.617188 L 124.917969 186.710938 C 124.824219 186.714844 124.746094 186.734375 124.652344 186.734375 C 124.425781 186.734375 124.214844 186.695312 124.003906 186.667969 C 123.507812 189.804688 123.230469 193 123.230469 196.226562 C 123.230469 206.109375 125.574219 215.449219 129.714844 223.742188 C 129.933594 223.683594 130.171875 223.644531 130.410156 223.617188 Z M 140.269531 199.484375 C 138.039062 198.535156 136.476562 196.320312 136.476562 193.742188 C 136.476562 190.300781 139.265625 187.511719 142.703125 187.511719 C 144.054688 187.511719 145.296875 187.957031 146.324219 188.691406 L 157.722656 175.871094 C 157.167969 175.253906 156.738281 174.53125 156.457031 173.738281 L 130.800781 179.742188 C 130.832031 179.996094 130.878906 180.246094 130.878906 180.511719 C 130.878906 183.410156 128.890625 185.828125 126.210938 186.523438 L 131.738281 223.664062 C 132.117188 223.738281 132.46875 223.875 132.800781 224.035156 Z M 133.925781 224.808594 C 134.34375 225.207031 134.679688 225.691406 134.914062 226.230469 L 153.558594 221.265625 C 153.539062 221.105469 153.511719 220.945312 153.511719 220.78125 C 153.511719 219.5 154.0625 218.359375 154.933594 217.558594 L 145.09375 199.496094 C 144.359375 199.800781 143.550781 199.972656 142.703125 199.972656 C 142.296875 199.972656 141.90625 199.925781 141.523438 199.855469 Z M 178.761719 255.996094 L 134.078125 231.167969 C 144.046875 245.664062 160.023438 255.707031 178.390625 257.65625 C 178.457031 257.085938 178.582031 256.527344 178.761719 255.996094 Z M 181.125 252.390625 L 170.644531 238.605469 C 170.015625 238.949219 169.308594 239.160156 168.539062 239.160156 C 166.109375 239.160156 164.136719 237.1875 164.136719 234.753906 C 164.136719 234.707031 164.148438 234.660156 164.148438 234.605469 L 135.066406 229.25 C 134.980469 229.523438 134.871094 229.789062 134.742188 230.035156 L 179.269531 254.777344 C 179.746094 253.875 180.371094 253.066406 181.125 252.390625 Z M 189 207.664062 C 188.867188 207.621094 188.726562 207.589844 188.601562 207.535156 L 171.585938 231.589844 C 172.421875 232.394531 172.945312 233.511719 172.945312 234.757812 C 172.945312 235.953125 172.46875 237.03125 171.691406 237.828125 L 182.152344 251.589844 C 183.421875 250.765625 184.925781 250.285156 186.542969 250.25 Z M 189.019531 250.589844 L 197.5625 224.691406 C 196.132812 223.960938 195.140625 222.492188 195.140625 220.773438 C 195.140625 219.40625 195.769531 218.207031 196.742188 217.398438 L 190.835938 207.597656 C 190.664062 207.65625 190.488281 207.703125 190.304688 207.730469 L 187.847656 250.335938 C 188.246094 250.394531 188.636719 250.484375 189.019531 250.589844 Z M 223.957031 218.261719 C 223.238281 217.71875 222.695312 216.960938 222.410156 216.082031 L 203.625 219.144531 C 203.828125 219.652344 203.949219 220.203125 203.949219 220.78125 C 203.949219 223.210938 201.976562 225.1875 199.542969 225.1875 C 199.292969 225.1875 199.046875 225.15625 198.800781 225.113281 L 190.25 251.03125 C 191.058594 251.402344 191.789062 251.902344 192.429688 252.496094 Z M 227.9375 240.5 C 227.898438 240.453125 227.859375 240.402344 227.820312 240.355469 L 194.597656 255.765625 C 194.761719 256.222656 194.902344 256.691406 194.992188 257.183594 C 207.691406 255.097656 219.089844 249.109375 227.9375 240.5 Z M 230.304688 230.609375 L 227.105469 219.089844 C 226.925781 219.109375 226.753906 219.144531 226.574219 219.144531 C 226.070312 219.144531 225.59375 219.042969 225.144531 218.882812 L 193.296875 253.464844 C 193.578125 253.816406 193.816406 254.179688 194.035156 254.578125 L 227.078125 239.253906 C 226.628906 238.390625 226.347656 237.429688 226.347656 236.390625 C 226.363281 233.757812 228 231.523438 230.304688 230.609375 Z M 246.492188 200.609375 C 245.78125 200.410156 245.167969 199.980469 244.761719 199.382812 L 230.257812 212.328125 C 230.707031 213.019531 230.980469 213.847656 230.980469 214.734375 C 230.980469 216.523438 229.90625 218.0625 228.371094 218.75 L 231.5625 230.265625 C 231.894531 230.210938 232.230469 230.160156 232.582031 230.160156 C 233.789062 230.160156 234.902344 230.515625 235.855469 231.105469 C 241.894531 222.3125 245.703125 211.871094 246.492188 200.609375 Z M 253.3125 171.695312 C 251.589844 171.695312 250.199219 173.089844 250.199219 174.8125 C 250.199219 176.535156 251.589844 177.925781 253.3125 177.925781 C 255.035156 177.925781 256.425781 176.535156 256.425781 174.8125 C 256.425781 173.09375 255.027344 171.695312 253.3125 171.695312 Z M 197.648438 137.59375 C 200.167969 137.59375 200.171875 133.675781 197.648438 133.675781 C 195.132812 133.675781 195.132812 137.59375 197.648438 137.59375 Z M 230.304688 160.222656 C 232.820312 160.222656 232.828125 156.304688 230.304688 156.304688 C 227.785156 156.304688 227.78125 160.222656 230.304688 160.222656 Z M 220.28125 146.972656 C 222.800781 146.972656 222.804688 143.054688 220.28125 143.054688 C 217.765625 143.054688 217.757812 146.972656 220.28125 146.972656 Z M 220.28125 146.972656 " clip-rule="nonzero"/></clipPath><linearGradient x1="1820.417336" gradientTransform="matrix(0.0662347, 0, 0, 0.066285, 118.426722, 131.394757)" y1="2211.287312" x2="319.071343" gradientUnits="userSpaceOnUse" y2="-198.766108" id="c2bd22f10f"><stop stop-opacity="1" stop-color="rgb(7.516479%, 41.668701%, 71.578979%)" offset="0"/><stop stop-opacity="1" stop-color="rgb(7.397461%, 41.7099%, 71.612549%)" offset="0.03125"/><stop stop-opacity="1" stop-color="rgb(7.16095%, 41.793823%, 71.679688%)" offset="0.0625"/><stop stop-opacity="1" stop-color="rgb(6.924438%, 41.876221%, 71.7453%)" offset="0.09375"/><stop stop-opacity="1" stop-color="rgb(6.687927%, 41.958618%, 71.812439%)" offset="0.125"/><stop stop-opacity="1" stop-color="rgb(6.44989%, 42.042542%, 71.879578%)" offset="0.15625"/><stop stop-opacity="1" stop-color="rgb(6.213379%, 42.124939%, 71.946716%)" offset="0.1875"/><stop stop-opacity="1" stop-color="rgb(5.976868%, 42.207336%, 72.012329%)" offset="0.21875"/><stop stop-opacity="1" stop-color="rgb(5.740356%, 42.289734%, 72.079468%)" offset="0.25"/><stop stop-opacity="1" stop-color="rgb(5.503845%, 42.373657%, 72.146606%)" offset="0.28125"/><stop stop-opacity="1" stop-color="rgb(5.267334%, 42.456055%, 72.213745%)" offset="0.3125"/><stop stop-opacity="1" stop-color="rgb(5.030823%, 42.538452%, 72.279358%)" offset="0.34375"/><stop stop-opacity="1" stop-color="rgb(4.794312%, 42.62085%, 72.346497%)" offset="0.375"/><stop stop-opacity="1" stop-color="rgb(4.556274%, 42.704773%, 72.413635%)" offset="0.387981"/><stop stop-opacity="1" stop-color="rgb(4.438782%, 42.745972%, 72.447205%)" offset="0.40625"/><stop stop-opacity="1" stop-color="rgb(4.319763%, 42.78717%, 72.480774%)" offset="0.4375"/><stop stop-opacity="1" stop-color="rgb(4.083252%, 42.869568%, 72.546387%)" offset="0.46875"/><stop stop-opacity="1" stop-color="rgb(3.846741%, 42.953491%, 72.613525%)" offset="0.5"/><stop stop-opacity="1" stop-color="rgb(3.610229%, 43.035889%, 72.680664%)" offset="0.53125"/><stop stop-opacity="1" stop-color="rgb(3.373718%, 43.118286%, 72.747803%)" offset="0.5625"/><stop stop-opacity="1" stop-color="rgb(3.137207%, 43.200684%, 72.813416%)" offset="0.59375"/><stop stop-opacity="1" stop-color="rgb(2.900696%, 43.284607%, 72.880554%)" offset="0.612019"/><stop stop-opacity="1" stop-color="rgb(2.783203%, 43.325806%, 72.914124%)" offset="0.625"/><stop stop-opacity="1" stop-color="rgb(2.664185%, 43.367004%, 72.947693%)" offset="0.65625"/><stop stop-opacity="1" stop-color="rgb(2.426147%, 43.449402%, 73.014832%)" offset="0.6875"/><stop stop-opacity="1" stop-color="rgb(2.189636%, 43.531799%, 73.080444%)" offset="0.71875"/><stop stop-opacity="1" stop-color="rgb(1.953125%, 43.615723%, 73.147583%)" offset="0.75"/><stop stop-opacity="1" stop-color="rgb(1.716614%, 43.69812%, 73.214722%)" offset="0.78125"/><stop stop-opacity="1" stop-color="rgb(1.480103%, 43.780518%, 73.28186%)" offset="0.8125"/><stop stop-opacity="1" stop-color="rgb(1.243591%, 43.862915%, 73.347473%)" offset="0.84375"/><stop stop-opacity="1" stop-color="rgb(1.00708%, 43.946838%, 73.414612%)" offset="0.875"/><stop stop-opacity="1" stop-color="rgb(0.770569%, 44.029236%, 73.48175%)" offset="0.90625"/><stop stop-opacity="1" stop-color="rgb(0.532532%, 44.111633%, 73.548889%)" offset="0.9375"/><stop stop-opacity="1" stop-color="rgb(0.296021%, 44.195557%, 73.614502%)" offset="0.96875"/><stop stop-opacity="1" stop-color="rgb(0.088501%, 44.267273%, 73.674011%)" offset="1"/></linearGradient></defs><g fill="#312f30" fill-opacity="1"><g transform="translate(103.334511, 289.527871)"><g><path d="M 5.625 -14.0625 L 0.09375 -14.0625 L 0.09375 -16.6875 L 14.265625 -16.6875 L 14.265625 -14.0625 L 8.734375 -14.0625 L 8.734375 0 L 5.625 0 Z M 5.625 -14.0625 "/></g></g></g><g fill="#312f30" fill-opacity="1"><g transform="translate(117.683718, 289.527871)"><g><path d="M 2.234375 -16.6875 L 5.34375 -16.6875 L 5.34375 0 L 2.234375 0 Z M 2.234375 -16.6875 "/></g></g></g><g fill="#312f30" fill-opacity="1"><g transform="translate(125.287367, 289.527871)"><g><path d="M 13.0625 -3.859375 L 4.71875 -3.859375 L 3.078125 0 L -0.125 0 L 7.390625 -16.6875 L 10.4375 -16.6875 L 17.984375 0 L 14.734375 0 Z M 12.046875 -6.296875 L 8.890625 -13.59375 L 5.765625 -6.296875 Z M 12.046875 -6.296875 "/></g></g></g><g fill="#312f30" fill-opacity="1"><g transform="translate(143.140458, 289.527871)"><g><path d="M 17.578125 0 L 17.546875 -11.0625 L 12.0625 -1.90625 L 10.6875 -1.90625 L 5.203125 -10.921875 L 5.203125 0 L 2.234375 0 L 2.234375 -16.6875 L 4.796875 -16.6875 L 11.421875 -5.625 L 17.9375 -16.6875 L 20.484375 -16.6875 L 20.5 0 Z M 17.578125 0 "/></g></g></g><g fill="#312f30" fill-opacity="1"><g transform="translate(165.903739, 289.527871)"><g><path d="M 13.0625 -3.859375 L 4.71875 -3.859375 L 3.078125 0 L -0.125 0 L 7.390625 -16.6875 L 10.4375 -16.6875 L 17.984375 0 L 14.734375 0 Z M 12.046875 -6.296875 L 8.890625 -13.59375 L 5.765625 -6.296875 Z M 12.046875 -6.296875 "/></g></g></g><g fill="#312f30" fill-opacity="1"><g transform="translate(183.75683, 289.527871)"><g><path d="M 5.625 -14.0625 L 0.09375 -14.0625 L 0.09375 -16.6875 L 14.265625 -16.6875 L 14.265625 -14.0625 L 8.734375 -14.0625 L 8.734375 0 L 5.625 0 Z M 5.625 -14.0625 "/></g></g></g><g fill="#312f30" fill-opacity="1"><g transform="translate(198.106038, 289.527871)"><g/></g></g><g fill="#312f30" fill-opacity="1"><g transform="translate(204.684742, 289.527871)"><g><path d="M 5.625 -14.0625 L 0.09375 -14.0625 L 0.09375 -16.6875 L 14.265625 -16.6875 L 14.265625 -14.0625 L 8.734375 -14.0625 L 8.734375 0 L 5.625 0 Z M 5.625 -14.0625 "/></g></g></g><g fill="#312f30" fill-opacity="1"><g transform="translate(219.03395, 289.527871)"><g><path d="M 14.765625 -2.59375 L 14.765625 0 L 2.234375 0 L 2.234375 -16.6875 L 14.421875 -16.6875 L 14.421875 -14.09375 L 5.34375 -14.09375 L 5.34375 -9.75 L 13.40625 -9.75 L 13.40625 -7.203125 L 5.34375 -7.203125 L 5.34375 -2.59375 Z M 14.765625 -2.59375 "/></g></g></g><g fill="#312f30" fill-opacity="1"><g transform="translate(235.003996, 289.527871)"><g><path d="M 9.96875 0.234375 C 8.28125 0.234375 6.753906 -0.132812 5.390625 -0.875 C 4.035156 -1.613281 2.972656 -2.632812 2.203125 -3.9375 C 1.429688 -5.238281 1.046875 -6.707031 1.046875 -8.34375 C 1.046875 -9.976562 1.4375 -11.445312 2.21875 -12.75 C 3 -14.0625 4.066406 -15.082031 5.421875 -15.8125 C 6.785156 -16.550781 8.304688 -16.921875 9.984375 -16.921875 C 11.359375 -16.921875 12.609375 -16.679688 13.734375 -16.203125 C 14.859375 -15.734375 15.8125 -15.046875 16.59375 -14.140625 L 14.59375 -12.25 C 13.382812 -13.550781 11.898438 -14.203125 10.140625 -14.203125 C 8.992188 -14.203125 7.96875 -13.953125 7.0625 -13.453125 C 6.15625 -12.953125 5.445312 -12.253906 4.9375 -11.359375 C 4.425781 -10.472656 4.171875 -9.46875 4.171875 -8.34375 C 4.171875 -7.21875 4.425781 -6.207031 4.9375 -5.3125 C 5.445312 -4.425781 6.15625 -3.734375 7.0625 -3.234375 C 7.96875 -2.734375 8.992188 -2.484375 10.140625 -2.484375 C 11.898438 -2.484375 13.382812 -3.140625 14.59375 -4.453125 L 16.59375 -2.546875 C 15.8125 -1.640625 14.851562 -0.945312 13.71875 -0.46875 C 12.582031 0 11.332031 0.234375 9.96875 0.234375 Z M 9.96875 0.234375 "/></g></g></g><g fill="#312f30" fill-opacity="1"><g transform="translate(252.332696, 289.527871)"><g><path d="M 17.078125 -16.6875 L 17.078125 0 L 13.96875 0 L 13.96875 -7.15625 L 5.34375 -7.15625 L 5.34375 0 L 2.234375 0 L 2.234375 -16.6875 L 5.34375 -16.6875 L 5.34375 -9.796875 L 13.96875 -9.796875 L 13.96875 -16.6875 Z M 17.078125 -16.6875 "/></g></g></g><g clip-path="url(#8ddc493619)"><g clip-path="url(#c74166c92a)"><path fill="url(#c2bd22f10f)" d="M 118.425781 131.394531 L 118.425781 267.105469 L 256.425781 267.105469 L 256.425781 131.394531 Z M 118.425781 131.394531 " fill-rule="nonzero"/></g></g></svg>